<svg id="Layer_1" enable-background="new 0 0 512 512" height="512" viewBox="0 0 512 512" width="512" xmlns="http://www.w3.org/2000/svg"><g><g><g><g id="XMLID_2746_"><g id="XMLID_2747_"><g id="XMLID_2748_"><g id="XMLID_2749_"><g id="XMLID_2750_"><g id="XMLID_2751_"><g id="XMLID_2752_"><g id="XMLID_2753_"><g id="XMLID_2754_"><g id="XMLID_2755_"><g id="XMLID_2756_"><g id="XMLID_2757_"><g id="XMLID_2758_"><g id="XMLID_2759_"><g id="XMLID_2760_"><circle cx="256" cy="256" fill="#4f4359" r="256"/></g></g></g></g></g></g></g></g></g></g></g></g></g></g></g></g></g><path d="m511.98 257.604-125.738-125.737-254.376 254.376 125.737 125.737c140.11-.862 253.515-114.266 254.377-254.376z" fill="#372a44"/><g><g><g><g id="XMLID_2692_"><g id="XMLID_2693_"><g id="XMLID_2694_"><g id="XMLID_2695_"><g id="XMLID_2696_"><g id="XMLID_2697_"><g id="XMLID_2698_"><g id="XMLID_2699_"><g id="XMLID_2723_"><g id="XMLID_2739_"><g id="XMLID_2740_"><g id="XMLID_2741_"><g id="XMLID_2742_"><g id="XMLID_2743_"><g id="XMLID_2744_"><circle cx="255.999" cy="256" fill="#ff816c" r="179.923"/></g></g></g></g></g></g></g></g></g></g></g></g></g></g></g></g></g><g><g id="XMLID_2483_"><g id="XMLID_2484_"><g id="XMLID_2485_"><g id="XMLID_2486_"><g id="XMLID_2487_"><g id="XMLID_2488_"><g id="XMLID_2489_"><g id="XMLID_2490_"><g id="XMLID_2491_"><g id="XMLID_2506_"><g id="XMLID_2507_"><g id="XMLID_2508_"><g id="XMLID_2509_"><g id="XMLID_2510_"><path d="m435.923 256c0 99.367-80.557 179.924-179.924 179.924v-359.848c99.368 0 179.924 80.557 179.924 179.924z" fill="#ff6643"/></g></g></g></g></g></g></g></g></g></g></g></g></g></g></g><g><path d="m330.502 352.502h-35c0-21.781-17.721-39.502-39.502-39.502s-39.502 17.721-39.502 39.502h-35c0-41.08 33.421-74.502 74.502-74.502s74.502 33.422 74.502 74.502z" fill="#7f6866"/></g><g><path d="m225.558 210.056c-4.539 17.041-20.077 29.6-38.552 29.6-22.026 0-39.875-17.849-39.875-39.875 0-11.236 4.65-21.399 12.141-28.653z" fill="#7f6866"/><path d="m364.867 199.781c0 22.026-17.849 39.875-39.875 39.875-18.475 0-34.013-12.558-38.552-29.6l66.286-38.928c7.491 7.254 12.141 17.418 12.141 28.653z" fill="#634c4c"/></g><g><path d="m330.5 352.5h-35c0-21.78-17.72-39.5-39.5-39.5v-35c41.08 0 74.5 33.42 74.5 74.5z" fill="#634c4c"/></g></g></g></svg>