<svg id="Layer_1" enable-background="new 0 0 512 512" height="512" viewBox="0 0 512 512" width="512" xmlns="http://www.w3.org/2000/svg"><g><g><g><g id="XMLID_2019_"><g id="XMLID_2020_"><g id="XMLID_2021_"><g id="XMLID_2022_"><g id="XMLID_2087_"><g id="XMLID_2088_"><g id="XMLID_2089_"><g id="XMLID_2090_"><g id="XMLID_2091_"><g id="XMLID_2092_"><g id="XMLID_2093_"><g id="XMLID_2115_"><g id="XMLID_2116_"><g id="XMLID_2117_"><g id="XMLID_2118_"><circle cx="256" cy="256" fill="#4f4359" r="256"/></g></g></g></g></g></g></g></g></g></g></g></g></g></g></g></g></g><path d="m511.98 257.604-125.738-125.737-254.376 254.376 125.737 125.737c140.11-.862 253.515-114.266 254.377-254.376z" fill="#372a44"/><g><g><g><g id="XMLID_1970_"><g id="XMLID_1971_"><g id="XMLID_1972_"><g id="XMLID_1973_"><g id="XMLID_1974_"><g id="XMLID_1981_"><g id="XMLID_1996_"><g id="XMLID_2010_"><g id="XMLID_2011_"><g id="XMLID_2012_"><g id="XMLID_2013_"><g id="XMLID_2014_"><g id="XMLID_2015_"><g id="XMLID_2016_"><g id="XMLID_2017_"><circle cx="255.999" cy="256" fill="#fed940" r="179.923"/></g></g></g></g></g></g></g></g></g></g></g></g></g></g></g></g></g><g><g><g id="XMLID_1699_"><g id="XMLID_1700_"><g id="XMLID_1701_"><g id="XMLID_1702_"><g id="XMLID_1703_"><g id="XMLID_1704_"><g id="XMLID_1705_"><g id="XMLID_1706_"><g id="XMLID_1707_"><g id="XMLID_1708_"><g id="XMLID_1709_"><g id="XMLID_1710_"><g id="XMLID_1711_"><g id="XMLID_1918_"><g><path d="m435.923 256c0 99.367-80.557 179.924-179.924 179.924v-359.848c99.368 0 179.924 80.557 179.924 179.924z" fill="#ffc024"/></g></g></g></g></g></g></g></g></g></g></g></g></g></g></g></g></g><g><g><path d="m138.237 166.868h30c0 10.354 8.424 18.777 18.778 18.777s18.777-8.423 18.777-18.777h30c0 26.896-21.882 48.777-48.777 48.777-26.896 0-48.778-21.881-48.778-48.777z" fill="#7f6866"/></g></g></g><path d="m256 296.225c30.511 0 56.53 19.549 66.222 46.775h36.408c-10.706-46.774-52.656-81.775-102.63-81.775s-91.924 35.001-102.63 81.775h36.408c9.692-27.226 35.711-46.775 66.222-46.775z" fill="#7f6866"/><path d="m358.63 343h-36.41c-9.69-27.23-35.71-46.78-66.22-46.78v-35c49.97 0 91.92 35.01 102.63 81.78z" fill="#634c4c"/><path d="m337.964 246.575-34.964 47.553c-14.211 19.328-12.11 47.008 4.833 63.665 17.007 16.72 43.254 16.72 60.261 0 16.942-16.657 19.044-44.336 4.833-63.665z" fill="#2f9de0"/><g><path d="m276.207 166.868h30c0 10.354 8.424 18.777 18.777 18.777 10.355 0 18.778-8.423 18.778-18.777h30c0 26.896-21.882 48.777-48.778 48.777-26.895 0-48.777-21.881-48.777-48.777z" fill="#634c4c"/></g></g></svg>