<svg id="Layer_1" enable-background="new 0 0 512 512" height="512" viewBox="0 0 512 512" width="512" xmlns="http://www.w3.org/2000/svg"><g><g><g><g id="XMLID_2808_"><g id="XMLID_2809_"><g id="XMLID_2810_"><g id="XMLID_2811_"><g id="XMLID_2812_"><g id="XMLID_2813_"><g id="XMLID_2814_"><g id="XMLID_2815_"><g id="XMLID_2816_"><g id="XMLID_2817_"><g id="XMLID_2818_"><g id="XMLID_2819_"><g id="XMLID_2820_"><g id="XMLID_2821_"><g id="XMLID_2822_"><circle cx="256" cy="256" fill="#4f4359" r="256"/></g></g></g></g></g></g></g></g></g></g></g></g></g></g></g></g></g><path d="m511.98 257.604-125.738-125.737-254.376 254.376 125.737 125.737c140.11-.862 253.515-114.266 254.377-254.376z" fill="#372a44"/><g><g><g id="XMLID_2776_"><g id="XMLID_2777_"><g id="XMLID_2778_"><g id="XMLID_2779_"><g id="XMLID_2780_"><g id="XMLID_2781_"><g id="XMLID_2782_"><g id="XMLID_2799_"><g id="XMLID_2800_"><g id="XMLID_2801_"><g id="XMLID_2802_"><g id="XMLID_2803_"><g id="XMLID_2804_"><g id="XMLID_2805_"><g id="XMLID_2806_"><circle cx="255.999" cy="256" fill="#fed940" r="179.923"/></g></g></g></g></g></g></g></g></g></g></g></g></g></g></g></g></g><g><g><g id="XMLID_2496_"><g id="XMLID_2497_"><g id="XMLID_2498_"><g id="XMLID_2499_"><g id="XMLID_2500_"><g id="XMLID_2670_"><g id="XMLID_2745_"><g id="XMLID_2761_"><g id="XMLID_2762_"><g id="XMLID_2763_"><g id="XMLID_2764_"><g id="XMLID_2765_"><g id="XMLID_2766_"><g id="XMLID_2767_"><g><path d="m435.923 256c0 99.367-80.557 179.924-179.924 179.924v-359.848c99.368 0 179.924 80.557 179.924 179.924z" fill="#ffc024"/></g></g></g></g></g></g></g></g></g></g></g></g></g></g></g></g></g><g><path d="m180.056 337.996-44.959-23.682 13.983-26.543 30.976 16.317 37.968-20 37.971 20 37.969-19.999 37.973 20 30.984-16.318 13.98 26.543-44.964 23.681-37.973-20-37.969 20.001-37.971-20z" fill="#7f6866"/></g><g><g><path d="m376.9 314.31-44.96 23.69-37.98-20-37.96 19.99v-33.91l37.96-19.99 37.98 20 30.98-16.32z" fill="#634c4c"/></g></g><g><g><path d="m165.371 237.621-17.098-24.652 34.562-23.969-34.562-23.969 17.098-24.652 70.104 48.621z" fill="#7f6866"/></g><g><g><path d="m346.628 237.621 17.097-24.652-34.561-23.969 34.561-23.969-17.097-24.652-70.105 48.621z" fill="#634c4c"/></g></g></g></g></svg>